{"asset":{"version":"2.0","generator":"Unity 2021.3.9f1c1 glTFast 5.0.0-exp.1"},"nodes":[{"name":"Cube","mesh":0}],"extensionsRequired":["KHR_texture_transform"],"extensionsUsed":["KHR_texture_transform"],"buffers":[{"uri":"Cube.bin","byteLength":1416}],"bufferViews":[{"buffer":0,"byteLength":72},{"buffer":0,"byteLength":1344,"byteOffset":72,"byteStride":56}],"accessors":[{"bufferView":1,"componentType":5126,"count":24,"type":"VEC3","max":[0.5,0.5,0.5],"min":[-0.5,-0.5,-0.5]},{"bufferView":1,"componentType":5126,"count":24,"type":"VEC3","byteOffset":12},{"bufferView":1,"componentType":5126,"count":24,"type":"VEC4","byteOffset":24},{"bufferView":1,"componentType":5126,"count":24,"type":"VEC2","byteOffset":40},{"bufferView":1,"componentType":5126,"count":24,"type":"VEC2","byteOffset":48},{"bufferView":0,"componentType":5123,"count":36,"type":"SCALAR"}],"images":[{"name":"Default-Particle.png","uri":"Default-Particle.png","mimeType":"image/png"}],"materials":[{"name":"Default-Particle","pbrMetallicRoughness":{"metallicFactor":0,"baseColorTexture":{"index":0,"extensions":{"KHR_texture_transform":{"offset":[0,1],"scale":[1,-1]}}}},"alphaMode":"BLEND"}],"meshes":[{"name":"Cube","primitives":[{"attributes":{"POSITION":0,"NORMAL":1,"TANGENT":2,"TEXCOORD_0":3,"TEXCOORD_1":4},"indices":5,"material":0}]}],"scene":0,"scenes":[{"name":"Cube","nodes":[0]}],"textures":[{"source":0}]}