{"asset":{"version":"2.0","generator":"Unity 2021.3.9f1c1 glTFast 5.0.0-exp.1"},"nodes":[{"name":"Cylinder_002","mesh":0,"rotation":[-3.39278579E-08,-0.438407779,-1.6549432E-08,0.8987762],"scale":[0.167429343,0.217639372,1.40116882]},{"name":"Cylinder_003","mesh":1,"translation":[0,-0.07456003,0],"rotation":[-0.7071068,0,0,0.7071068],"scale":[1.87876737,1.87876737,1.87876737]},{"name":"Light","translation":[0,0.0999999046,0],"rotation":[0,0,3.49245938E-10,1],"extensions":{"KHR_lights_punctual":{"light":0}}},{"name":"Fire","translation":[0,-0.106704712,0],"rotation":[0.7071068,1.11154321E-08,1.11154321E-08,-0.7071068]},{"name":"Flames","translation":[0,0.28,0],"rotation":[-0.7071068,3.313394E-09,3.313394E-09,0.7071068]},{"name":"Glow","rotation":[-0.6987298,0.10852053,0.10852059,0.698729753]},{"name":"SmokeLit","translation":[0,-0.275832951,0],"rotation":[0.7071068,1.11154321E-08,1.11154321E-08,-0.7071068]},{"name":"SparksFalling","rotation":[0.7071068,1.11154321E-08,1.11154321E-08,-0.7071068]},{"name":"SparksRising","rotation":[0.7071068,-3.77273635E-09,-3.77273635E-09,-0.7071068]},{"name":"Fire","children":[2,3,4,5,6,7,8],"mesh":2,"translation":[-0.002,0.092,0.003],"scale":[2,2,2]},{"name":"Campfire","children":[0,1,9],"translation":[8.56,-1.2889998,12.68],"rotation":[-0.0179374032,0.00191963138,-0.0133173959,0.9997486]}],"extensionsRequired":["KHR_texture_transform","KHR_lights_punctual"],"extensionsUsed":["KHR_texture_transform","KHR_lights_punctual"],"buffers":[{"uri":"Campfire.bin","byteLength":39740}],"bufferViews":[{"buffer":0,"byteLength":2106},{"buffer":0,"byteLength":19440,"byteOffset":2108,"byteStride":48},{"buffer":0,"byteLength":1416,"byteOffset":21548},{"buffer":0,"byteLength":15360,"byteOffset":22964,"byteStride":48},{"buffer":0,"byteLength":72,"byteOffset":38324},{"buffer":0,"byteLength":1344,"byteOffset":38396,"byteStride":56}],"accessors":[{"bufferView":1,"componentType":5126,"count":405,"type":"VEC3","max":[4.246244,3.76400566,0.354123533],"min":[-3.18589163,-0.575770736,-0.408919156]},{"bufferView":1,"componentType":5126,"count":405,"type":"VEC3","byteOffset":12},{"bufferView":1,"componentType":5126,"count":405,"type":"VEC4","byteOffset":24},{"bufferView":1,"componentType":5126,"count":405,"type":"VEC2","byteOffset":40},{"bufferView":0,"componentType":5123,"count":1053,"type":"SCALAR"},{"bufferView":3,"componentType":5126,"count":320,"type":"VEC3","max":[0.4531636,0.4531636,0.0309439972],"min":[-0.4531636,-0.4531636,-0.0173651986]},{"bufferView":3,"componentType":5126,"count":320,"type":"VEC3","byteOffset":12},{"bufferView":3,"componentType":5126,"count":320,"type":"VEC4","byteOffset":24},{"bufferView":3,"componentType":5126,"count":320,"type":"VEC2","byteOffset":40},{"bufferView":2,"componentType":5123,"count":708,"type":"SCALAR"},{"bufferView":5,"componentType":5126,"count":24,"type":"VEC3","max":[0.5,0.5,0.5],"min":[-0.5,-0.5,-0.5]},{"bufferView":5,"componentType":5126,"count":24,"type":"VEC3","byteOffset":12},{"bufferView":5,"componentType":5126,"count":24,"type":"VEC4","byteOffset":24},{"bufferView":5,"componentType":5126,"count":24,"type":"VEC2","byteOffset":40},{"bufferView":5,"componentType":5126,"count":24,"type":"VEC2","byteOffset":48},{"bufferView":4,"componentType":5123,"count":36,"type":"SCALAR"}],"images":[{"name":"Logs_Diffuse.png","uri":"Logs_Diffuse.png","mimeType":"image/png"},{"name":"StoneBase_Diffuse.png","uri":"StoneBase_Diffuse.png","mimeType":"image/png"}],"materials":[{"name":"Logs_Diffuse","pbrMetallicRoughness":{"metallicFactor":0,"baseColorTexture":{"index":0,"extensions":{"KHR_texture_transform":{"offset":[0,1],"scale":[1,-1]}}}}},{"name":"StoneBase_Diffuse","pbrMetallicRoughness":{"metallicFactor":0,"baseColorTexture":{"index":1,"extensions":{"KHR_texture_transform":{"offset":[0,1],"scale":[1,-1]}}}}}],"meshes":[{"name":"Cylinder_002","primitives":[{"attributes":{"POSITION":0,"NORMAL":1,"TANGENT":2,"TEXCOORD_0":3},"indices":4,"material":0}]},{"name":"Cylinder_003","primitives":[{"attributes":{"POSITION":5,"NORMAL":6,"TANGENT":7,"TEXCOORD_0":8},"indices":9,"material":1}]},{"name":"Cube","primitives":[{"attributes":{"POSITION":10,"NORMAL":11,"TANGENT":12,"TEXCOORD_0":13,"TEXCOORD_1":14},"indices":15}]}],"scene":0,"scenes":[{"name":"Campfire","nodes":[10]}],"textures":[{"source":0},{"source":1}],"extensions":{"KHR_lights_punctual":{"lights":[{"type":"point","name":"Light","color":[1,0.317661136,0.0610452741],"intensity":4.712389,"range":10}]}}}